<?xml version="1.0" standalone="no"?><!DOCTYPE svg PUBLIC "-//W3C//DTD SVG 1.1//EN" "http://www.w3.org/Graphics/SVG/1.1/DTD/svg11.dtd"><svg t="1695029064053" class="icon" viewBox="0 0 1024 1024" version="1.1" xmlns="http://www.w3.org/2000/svg" p-id="2979" width="32" height="32" xmlns:xlink="http://www.w3.org/1999/xlink"><path d="M512.00337692 223.62507194c-39.07811828 0-76.40824868 7.54812851-112.02349786 22.7966725-35.61524846 15.24854397-66.28448731 35.85361048-92.03419966 61.53711098-25.75633368 25.82254479-46.28194643 56.45205638-61.51062641 92.02757833-15.26178662 35.70794488-22.88274757 72.93213694-22.88274757 112.07646705 0 39.01190645 7.62096168 76.36852217 22.88274757 111.94404411 15.22868071 35.71456621 35.75429346 66.3440778 61.51062641 92.1666226 25.74971235 25.69012185 56.41895047 46.14952278 92.03419966 61.53049039a284.03475437 284.03475437 0 0 0 112.02349786 22.80329382c39.06487635 0 76.39500676-7.69379412 112.01025522-22.80329382 35.61524846-15.38096763 66.28448731-35.84698987 92.03419965-61.5304904 25.75633368-25.82254479 46.28194643-56.45205638 61.51062642-92.16662258 15.28827122-35.57552195 22.88274757-72.93213694 22.88274758-111.94404412 0-39.1443301-7.5944771-76.36852217-22.88274758-112.07646704-15.22868071-35.57552195-35.75429346-66.21165414-61.51062642-92.03419894-25.74971235-25.67687918-56.41895047-46.28194643-92.03419965-61.53049038C588.39838368 231.17982179 551.06163194 223.62507194 511.99675559 223.62507194m0-82.41364616c50.20167629 0 98.25809517 9.75297643 144.02359033 29.39797427 45.79860107 19.63837652 85.22764104 46.0104785 118.27387798 79.10968462 33.07272152 32.96678243 59.41833818 72.38920181 79.03023011 118.2606353 19.61851326 45.73901058 29.43770153 93.81529271 29.45094418 143.94413656 0.03972724 50.27450871-9.81918826 98.35079085-29.45094418 144.08980216-19.62513458 45.87143423-45.97075126 85.29385288-79.03023011 118.254014-33.03299426 33.10582743-72.43554966 59.47792868-118.27387797 79.12292725C610.19526027 872.88993219 562.19181056 882.78195289 512.00337692 882.78195289c-50.18843363 0-98.19188333-9.89202143-144.02359031-29.39797427-45.85157025-19.63837652-85.26736828-46.0104785-118.28712063-79.1096846C216.62656579 741.30751156 190.28757045 701.8850922 170.66243587 656.00703736 151.03068066 610.27464813 141.17176516 562.19836599 141.21149168 511.93047787c0.01324266-50.13546446 9.83243092-98.21174661 29.45094419-143.94413656 19.61189194-45.88467617 45.950888-85.3004742 79.03023011-118.26725664 33.0396156-33.10582743 72.47527689-59.47130809 118.28712063-79.11630594C413.73866043 150.96440221 461.78845799 141.21142578 511.99675559 141.21142578" p-id="2980" fill="#1296db"></path></svg>