<svg width="24" height="24" xmlns="http://www.w3.org/2000/svg"><g fill-rule="nonzero" fill="none"><path d="M21.594 19.842H2.903c-.5 0-.903-.359-.903-.803V5.932c0-.444.403-.802.903-.802h18.69c.5 0 .903.358.903.802V19.04c0 .442-.405.803-.902.803z" fill="#FFE9B4"/><path d="M12.26 9.009H2V4.404c0-.5.404-.904.904-.904h7.021c.4 0 .751.26.865.643l1.47 4.866z" fill="#FFA000"/><path d="M21.594 19.842H2.903A.902.902 0 0 1 2 18.94V7.272c0-.5.403-.903.903-.903h18.69c.5 0 .903.404.903.903v11.667a.905.905 0 0 1-.902.903z" fill="#FFCA28"/></g></svg>