<?xml version="1.0" standalone="no"?><!DOCTYPE svg PUBLIC "-//W3C//DTD SVG 1.1//EN" "http://www.w3.org/Graphics/SVG/1.1/DTD/svg11.dtd"><svg t="1693968072497" class="icon" viewBox="0 0 1024 1024" version="1.1" xmlns="http://www.w3.org/2000/svg" p-id="4876" width="64" height="64" xmlns:xlink="http://www.w3.org/1999/xlink"><path d="M796.444444 557.511111c-22.755556-45.511111-68.266667-73.955556-113.777777-73.955555H358.4c-39.822222 0-68.266667-28.444444-68.266667-68.266667v-28.444445c0-5.688889 0-17.066667 5.688889-28.444444 5.688889-28.444444 34.133333-51.2 68.266667-51.2h56.888889c17.066667 0 34.133333-17.066667 34.133333-34.133333s-22.755556-28.444444-39.822222-28.444445h-56.888889C295.822222 244.622222 244.622222 284.444444 227.555556 341.333333c0 17.066667-5.688889 28.444444-5.688889 45.511111v28.444445c0 73.955556 56.888889 130.844444 130.844444 130.844444H682.666667c22.755556 0 51.2 17.066667 62.577777 39.822223 5.688889 17.066667 11.377778 39.822222 11.377778 62.577777s-5.688889 39.822222-11.377778 56.888889c-11.377778 22.755556-34.133333 39.822222-62.577777 39.822222H312.888889c-5.688889-68.266667-62.577778-125.155556-130.844445-125.155555-73.955556 0-130.844444 56.888889-130.844444 130.844444s56.888889 130.844444 130.844444 130.844445c51.2 0 96.711111-28.444444 119.466667-73.955556H682.666667c51.2 0 96.711111-28.444444 119.466666-73.955555 11.377778-22.755556 17.066667-51.2 17.066667-85.333334s-5.688889-62.577778-22.755556-91.022222z m-551.822222 210.488889v5.688889c-5.688889 22.755556-34.133333 45.511111-62.577778 45.511111-39.822222 0-68.266667-34.133333-68.266666-68.266667 0-39.822222 28.444444-68.266667 68.266666-68.266666s68.266667 34.133333 68.266667 68.266666c0 5.688889 0 5.688889-5.688889 17.066667zM830.577778 142.222222c-73.955556 0-130.844444 56.888889-130.844445 130.844445 0 73.955556 56.888889 130.844444 130.844445 130.844444 73.955556 0 130.844444-56.888889 130.844444-130.844444 0-73.955556-56.888889-130.844444-130.844444-130.844445z m0 199.111111c-34.133333 0-68.266667-28.444444-68.266667-68.266666s28.444444-68.266667 68.266667-68.266667 68.266667 34.133333 68.266666 68.266667c0 39.822222-34.133333 68.266667-68.266666 68.266666z" fill="#cdcdcd" p-id="4877"></path><path d="M477.866667 273.066667c0 17.066667 11.377778 34.133333 34.133333 34.133333h130.844444c17.066667 0 34.133333-17.066667 34.133334-34.133333s-17.066667-34.133333-34.133334-34.133334H512c-17.066667 5.688889-34.133333 17.066667-34.133333 34.133334z" fill="#cdcdcd" p-id="4878"></path></svg>