<?xml version="1.0" encoding="UTF-8"?>
<svg width="32px" height="32px" viewBox="0 0 32 32" version="1.1" xmlns="http://www.w3.org/2000/svg" xmlns:xlink="http://www.w3.org/1999/xlink">
    <defs>
        <path d="m19.87 10.131-1.01 2.518-.86-.012v-.006l-7.045.002-.068.004a1.75 1.75 0 0 0-1.614 1.737l.006.144.656 8.388h4.804l-1.005 2.5h-6.11l-.168-2.137H.544l-.53-6.896a4.25 4.25 0 0 1 4.03-4.598l.206-.005h2.48a4.25 4.25 0 0 1 .873.09 4.238 4.238 0 0 1 3.089-1.716l.166-.01.166-.003h8.846zm1.106 1.7 5.476 13.566-5.454-1.781-5.497 1.78 5.475-13.565zm.008 4.028.011 6.18H21l2.854.931-2.87-7.111zm-14.21-1.588L4.25 14.27a1.75 1.75 0 0 0-1.75 1.75l.007.153.352 4.597 4.401-.001-.473-6.056a4.3 4.3 0 0 1-.012-.442zM6.193 3.748a3.25 3.25 0 1 1 0 6.5 3.25 3.25 0 0 1 0-6.5zM14.3 0a4.25 4.25 0 1 1 0 8.5 4.25 4.25 0 0 1 0-8.5zM6.192 5.748a1.25 1.25 0 1 0 0 2.5 1.25 1.25 0 0 0 0-2.5zM14.3 2a2.25 2.25 0 1 0 0 4.5 2.25 2.25 0 0 0 0-4.5z" id="team_a">
        </path>
    </defs>
    <g transform="translate(3 3)" fill-rule="evenodd">
        <mask id="team_b">
            <use xlink:href="#team_a"></use>
        </mask>
        <use fill-rule="nonzero" xlink:href="#team_a"></use>
        <g mask="url(#team_b)"><path d="M-20-21h68v68h-68z"></path>
    </g></g>
</svg>