<svg width="24" height="24" xmlns="http://www.w3.org/2000/svg"><g fill-rule="nonzero" fill="none"><path d="M2 12V2.889c0-.49.398-.889.889-.889H21.11c.49 0 .889.398.889.889V12H2z" fill="#00C9FC"/><path d="M22 12v9.111c0 .49-.398.889-.889.889H2.89A.889.889 0 0 1 2 21.111V12h20z" fill="#5ED300"/><path fill="#FF5056" d="M2 9.332h20v5.334H2z"/><path fill="#FFAB00" d="M9.332 2h5.334v20H9.332z"/><path d="M14.445 14.444H9.556a.89.89 0 0 1-.89-.888v-3.112c0-.492.399-.889.89-.889h4.889c.49 0 .889.398.889.889v3.111a.89.89 0 0 1-.889.889zm-4-4a.89.89 0 0 0-.889.89v1.332c0 .492.398.89.889.89h3.111a.889.889 0 0 0 .889-.89v-1.333a.889.889 0 0 0-.889-.889h-3.111z" fill="#FFF"/></g></svg>